<!DOCTYPE svg PUBLIC "-//W3C//DTD SVG 1.1//EN" "http://www.w3.org/Graphics/SVG/1.1/DTD/svg11.dtd">
<!-- Uploaded to: SVG Repo, www.svgrepo.com, Transformed by: SVG Repo Mixer Tools -->
<svg width="800px" height="800px" viewBox="0 0 24 24" xmlns="http://www.w3.org/2000/svg" fill="#FFFFFF" stroke="#FFFFFF">
<g id="SVGRepo_bgCarrier" stroke-width="0"/>
<g id="SVGRepo_tracerCarrier" stroke-linecap="round" stroke-linejoin="round"/>
<g id="SVGRepo_iconCarrier">
<path d="M18 1H6a5 5 0 0 0 0 10h12a5 5 0 0 0 0-10zm0 8a3 3 0 1 1 3-3 3 3 0 0 1-3 3zm0 4H6a5 5 0 0 0 0 10h12a5 5 0 0 0 0-10zm-.2 9H6a4 4 0 0 1 0-8h11.8a4 4 0 1 1 0 8zM6 15a3 3 0 1 0 3 3 3 3 0 0 0-3-3zm0 5a2 2 0 1 1 2-2 2.003 2.003 0 0 1-2 2z"/>
<path fill="none" d="M0 0h24v24H0z"/>
</g>
</svg>